# xmcd
#
# Track frame offsets:
#	150
#	16425
#	35400
#	54710
#	72383
#	94282
#	114082
#	132455
#	151128
#	168941
#	187907
#	208204
#	223677
#	241326
#	257001
#
# Disc length: 3686
#
# Revision: 1
# Processed by: cddbd v1.5.2PL0 Copyright (c) Steve Scherf et al.
# Submitted via: kJams Pro (development) 1.0patch44.15
#
DISCID=d30e640f
DTITLE=Various Artist - 267 sc8844 Pop Hits Vol. 164
DYEAR=2003
DGENRE=Pop
TTITLE0=Stacie Drivco - (There's Gotta Be) More To Life (Fm)
TTITLE1=Robert Randolph and The Family Band - I Need More Love (E)
TTITLE2=Clay Aikens - Invisible (Dm)
TTITLE3=Sarah McLachlan - Fallen (Dm)
TTITLE4=John Mayer - Clarity (D)
TTITLE5=Fuel - Falls On Me (C)
TTITLE6=Nickelback - Figured You Out (C)
TTITLE7=Nelly Frutado - Powerless (Radio Ver)(B)
TTITLE8=Sheryl Crow - The First Cut Is The Deepest (D)
TTITLE9=Outkast - Hey Ya! (Radio Ver)(G)
TTITLE10=Howie Day - Perfect Time Of Day (C)
TTITLE11=Pink - Trouble (G)
TTITLE12=Josh Kelly - Amazing (A)
TTITLE13=A Perfect Circle - Weak And Powerless (C#)
TTITLE14=Josh Groban - You Raise Me Up (Radio Ver)(Eb)
EXTD=
EXTT0=
EXTT1=
EXTT2=
EXTT3=
EXTT4=
EXTT5=
EXTT6=
EXTT7=
EXTT8=
EXTT9=
EXTT10=
EXTT11=
EXTT12=
EXTT13=
EXTT14=
PLAYORDER=
